<svg width="245" height="30" viewBox="0 0 245 30" fill="none" xmlns="http://www.w3.org/2000/svg">
<path d="M0.878052 19.981H6.15448C10.1789 19.981 12.9155 17.4412 12.9155 13.7209C12.9155 10.0005 10.1789 7.46069 6.15448 7.46069H0.878052V19.981ZM2.66667 18.4249V9.01679H6.04716C9.14147 9.01679 11.1268 10.9127 11.1268 13.7209C11.1268 16.529 9.14147 18.4249 6.04716 18.4249H2.66667Z" fill="white"/>
<path d="M23.9722 15.2948C23.9722 12.3794 22.0226 10.4119 19.286 10.4119C16.5494 10.4119 14.5283 12.4331 14.5283 15.2412C14.5283 18.0672 16.5673 20.0883 19.6258 20.0883C21.1998 20.0883 22.5055 19.5518 23.3641 18.5501L22.4161 17.4412C21.7185 18.2103 20.7885 18.5859 19.6795 18.5859C17.8015 18.5859 16.46 17.477 16.2454 15.8135H23.9364C23.9543 15.6526 23.9722 15.4379 23.9722 15.2948ZM19.286 11.8607C20.9494 11.8607 22.1478 12.9875 22.3267 14.5794H16.2454C16.4242 12.9696 17.6405 11.8607 19.286 11.8607Z" fill="white"/>
<path d="M32.8892 10.5013L29.5623 18.103L26.307 10.5013H24.5184L28.668 19.981H30.4209L34.5705 10.5013H32.8892Z" fill="white"/>
<path d="M44.4784 15.2948C44.4784 12.3794 42.5288 10.4119 39.7922 10.4119C37.0557 10.4119 35.0345 12.4331 35.0345 15.2412C35.0345 18.0672 37.0735 20.0883 40.1321 20.0883C41.7061 20.0883 43.0118 19.5518 43.8703 18.5501L42.9223 17.4412C42.2248 18.2103 41.2947 18.5859 40.1857 18.5859C38.3077 18.5859 36.9662 17.477 36.7516 15.8135H44.4427C44.4605 15.6526 44.4784 15.4379 44.4784 15.2948ZM39.7922 11.8607C41.4557 11.8607 42.654 12.9875 42.8329 14.5794H36.7516C36.9305 12.9696 38.1467 11.8607 39.7922 11.8607Z" fill="white"/>
<path d="M46.8627 19.981H48.5798V6.70947H46.8627V19.981Z" fill="white"/>
<path d="M55.9185 20.0883C58.7624 20.0883 60.8372 18.0672 60.8372 15.2412C60.8372 12.4152 58.7624 10.4119 55.9185 10.4119C53.0746 10.4119 50.9819 12.4152 50.9819 15.2412C50.9819 18.0672 53.0746 20.0883 55.9185 20.0883ZM55.9185 18.5859C54.0941 18.5859 52.7168 17.2623 52.7168 15.2412C52.7168 13.22 54.0941 11.9144 55.9185 11.9144C57.7429 11.9144 59.1022 13.22 59.1022 15.2412C59.1022 17.2623 57.7429 18.5859 55.9185 18.5859Z" fill="white"/>
<path d="M68.2378 10.4119C66.8427 10.4119 65.6265 10.9485 64.8574 12.0038V10.5013H63.2118V23.4509H64.9289V18.5501C65.7159 19.5696 66.8964 20.0883 68.2378 20.0883C71.0102 20.0883 73.0313 18.1566 73.0313 15.2412C73.0313 12.3436 71.0102 10.4119 68.2378 10.4119ZM68.0948 18.5859C66.2883 18.5859 64.911 17.2623 64.911 15.2412C64.911 13.2379 66.2883 11.9144 68.0948 11.9144C69.9191 11.9144 71.2964 13.2379 71.2964 15.2412C71.2964 17.2623 69.9191 18.5859 68.0948 18.5859Z" fill="white"/>
<path d="M83.9713 15.2948C83.9713 12.3794 82.0217 10.4119 79.2851 10.4119C76.5485 10.4119 74.5274 12.4331 74.5274 15.2412C74.5274 18.0672 76.5664 20.0883 79.6249 20.0883C81.1989 20.0883 82.5046 19.5518 83.3631 18.5501L82.4152 17.4412C81.7176 18.2103 80.7875 18.5859 79.6786 18.5859C77.8005 18.5859 76.4591 17.477 76.2444 15.8135H83.9355C83.9534 15.6526 83.9713 15.4379 83.9713 15.2948ZM79.2851 11.8607C80.9485 11.8607 82.1469 12.9875 82.3257 14.5794H76.2444C76.4233 12.9696 77.6396 11.8607 79.2851 11.8607Z" fill="white"/>
<path d="M93.5816 6.70947V11.9322C92.7946 10.9127 91.6141 10.4119 90.2727 10.4119C87.5003 10.4119 85.4792 12.3436 85.4792 15.2412C85.4792 18.1387 87.5003 20.0883 90.2727 20.0883C91.6678 20.0883 92.884 19.5518 93.6531 18.4786V19.981H95.2987V6.70947H93.5816ZM90.4157 18.5859C88.5913 18.5859 87.2141 17.2623 87.2141 15.2412C87.2141 13.22 88.5913 11.9144 90.4157 11.9144C92.2222 11.9144 93.5995 13.22 93.5995 15.2412C93.5995 17.2623 92.2222 18.5859 90.4157 18.5859Z" fill="white"/>
<path d="M108.377 10.4119C107.036 10.4119 105.855 10.9127 105.068 11.9322V6.70947H103.351V19.981H104.996V18.4786C105.766 19.5518 106.982 20.0883 108.377 20.0883C111.149 20.0883 113.17 18.1387 113.17 15.2412C113.17 12.3436 111.149 10.4119 108.377 10.4119ZM108.234 18.5859C106.427 18.5859 105.05 17.2623 105.05 15.2412C105.05 13.22 106.427 11.9144 108.234 11.9144C110.058 11.9144 111.436 13.22 111.436 15.2412C111.436 17.2623 110.058 18.5859 108.234 18.5859Z" fill="white"/>
<path d="M121.988 10.5013L118.715 18.0851L115.406 10.5013H113.617L117.803 19.9631L117.499 20.6249C117.034 21.716 116.515 22.0916 115.692 22.0916C115.048 22.0916 114.458 21.8412 113.993 21.394L113.26 22.6818C113.85 23.2542 114.78 23.5583 115.692 23.5583C117.141 23.5583 118.232 22.9322 119.073 20.929L123.67 10.5013H121.988Z" fill="white"/>
<path d="M161.164 14.4604C162.257 12.9407 162.855 11.1214 162.878 9.24975C162.939 4.16238 158.645 0 153.553 0H141.991C140.828 -1.29751e-06 139.677 0.229196 138.603 0.674501C137.529 1.11981 136.554 1.77247 135.732 2.59516C134.911 3.41785 134.26 4.39443 133.816 5.46902C133.372 6.54362 133.145 7.69514 133.146 8.85773V21.1907C133.155 23.5307 134.09 25.7719 135.748 27.4233C137.406 29.0746 139.651 30.0012 141.991 30H153.553C158.645 30 162.939 25.8376 162.878 20.7503C162.855 18.8786 162.257 17.0593 161.164 15.5396C161.051 15.3823 160.991 15.1936 160.991 15C160.991 14.8064 161.051 14.6177 161.164 14.4604ZM135.908 20.5036V9.5977C135.908 7.82323 136.613 6.12145 137.868 4.86671C139.123 3.61197 140.824 2.90705 142.599 2.90705H147.585C143.572 5.17985 141.537 8.43487 141.392 10.7781C141.392 10.8706 141.392 10.9631 141.392 11.0556V18.984C141.392 19.3201 141.458 19.6528 141.587 19.9633C141.715 20.2738 141.904 20.5559 142.141 20.7936C142.379 21.0312 142.661 21.2197 142.972 21.3483C143.282 21.4769 143.615 21.5431 143.951 21.5431H149.875C148.052 24.4678 143.911 27.0621 139.965 26.6613C138.76 26.1447 137.733 25.2859 137.012 24.1912C136.291 23.0966 135.907 21.8144 135.908 20.5036ZM151.509 18.5479H144.387V11.43H151.509V18.5479ZM157.702 16.0065C158.353 16.6415 158.862 17.406 159.198 18.2505C159.535 19.095 159.69 20.0006 159.654 20.9088C159.57 22.6163 158.829 24.225 157.584 25.3971C156.34 26.5692 154.69 27.2134 152.981 27.1942H148.479C152.443 24.8466 154.408 21.5211 154.408 19.213C154.412 19.1309 154.412 19.0485 154.408 18.9664V11.06C154.408 10.3813 154.138 9.73042 153.658 9.2505C153.178 8.77057 152.527 8.50095 151.849 8.50095H146.083C148.012 5.62472 152.139 3.14491 156.037 3.65585C156.967 4.11479 157.774 4.78994 158.389 5.62472C159.004 6.4595 159.41 7.42959 159.573 8.45369C159.736 9.47779 159.652 10.5261 159.326 11.5106C159 12.4952 158.444 13.3874 157.702 14.1125C157.454 14.3653 157.315 14.7053 157.315 15.0595C157.315 15.4136 157.454 15.7537 157.702 16.0065Z" fill="white"/>
<path d="M174.51 23.4458C173.812 23.4455 173.115 23.3984 172.423 23.3049C171.792 23.2225 171.174 23.0582 170.586 22.816C170.073 22.6122 169.619 22.2836 169.264 21.8602C168.922 21.4065 168.749 20.8469 168.776 20.2789V6.62451H171.995V12.1171L171.299 11.0908C171.644 10.7591 172.051 10.5 172.497 10.3288C172.975 10.1345 173.471 9.987 173.977 9.88835C174.392 9.80395 174.814 9.75678 175.237 9.7474C177.175 9.7474 178.646 10.3244 179.642 11.4828C180.637 12.6413 181.135 14.3018 181.135 16.4645C181.17 17.6173 180.988 18.7664 180.598 19.8516C180.292 20.6702 179.793 21.403 179.144 21.9879C178.53 22.5108 177.808 22.8927 177.03 23.1067C176.209 23.3324 175.362 23.4464 174.51 23.4458V23.4458ZM174.431 20.6665C175.156 20.707 175.876 20.5224 176.492 20.1379C176.991 19.7854 177.361 19.2796 177.545 18.6976C177.981 17.2442 177.955 15.6913 177.47 14.2534C177.255 13.6891 176.867 13.2078 176.36 12.8791C175.826 12.5699 175.215 12.4173 174.598 12.4386C174.165 12.4418 173.734 12.4935 173.312 12.5928C172.861 12.6892 172.427 12.8541 172.026 13.0817V19.4288C172.017 19.574 172.044 19.7192 172.105 19.8514C172.166 19.9836 172.258 20.0987 172.374 20.1864C172.633 20.3808 172.935 20.5093 173.255 20.5608C173.643 20.633 174.037 20.6684 174.431 20.6665V20.6665Z" fill="white"/>
<path d="M188.579 23.4458C187.879 23.4489 187.181 23.3796 186.495 23.2388C185.871 23.1148 185.274 22.879 184.734 22.5429C184.218 22.2171 183.797 21.7614 183.513 21.2215C183.195 20.5793 183.044 19.8674 183.073 19.1513C183.047 18.3644 183.234 17.5851 183.615 16.8961C183.986 16.2795 184.54 15.7944 185.2 15.5087C186.008 15.1664 186.879 15.0011 187.755 15.0241C188.335 15.019 188.914 15.0751 189.482 15.1915C189.978 15.2911 190.461 15.4462 190.922 15.654C191.297 15.8209 191.65 16.0324 191.975 16.2839L192.208 18.1118C191.783 17.8457 191.317 17.6508 190.83 17.5348C190.237 17.3842 189.627 17.3101 189.015 17.3146C188.31 17.2683 187.607 17.4209 186.984 17.755C186.762 17.9034 186.583 18.1079 186.466 18.3477C186.348 18.5874 186.296 18.854 186.315 19.1204C186.305 19.5046 186.433 19.8795 186.676 20.1776C186.921 20.4715 187.24 20.6937 187.601 20.8206C187.981 20.9569 188.382 21.0255 188.786 21.0233C189.472 21.0509 190.16 20.9872 190.83 20.8339C191.017 20.7923 191.184 20.6854 191.301 20.532C191.417 20.3787 191.475 20.1891 191.464 19.997V14.9008C191.493 14.5516 191.435 14.2005 191.295 13.8792C191.155 13.5579 190.938 13.2763 190.662 13.0597C189.997 12.6341 189.213 12.4306 188.425 12.4783C187.655 12.4825 186.891 12.6089 186.161 12.8527C185.479 13.0533 184.841 13.3806 184.28 13.8173V10.8574C184.925 10.479 185.629 10.2139 186.363 10.0733C187.343 9.85269 188.345 9.7448 189.35 9.75178C189.825 9.75462 190.299 9.7929 190.768 9.86631C191.262 9.94381 191.745 10.0783 192.208 10.2671C192.672 10.4558 193.099 10.7258 193.468 11.0644C193.847 11.4224 194.147 11.8561 194.349 12.3373C194.585 12.9216 194.699 13.5483 194.684 14.1784L194.657 20.3449C194.675 20.692 194.616 21.0388 194.485 21.3607C194.355 21.6827 194.155 21.9719 193.9 22.2081C193.287 22.7154 192.549 23.0486 191.763 23.1727C190.714 23.3697 189.647 23.4612 188.579 23.4458Z" fill="white"/>
<path d="M196.948 23.0581V11.3462C197.348 11.0917 197.775 10.8805 198.221 10.7163C198.911 10.4428 199.621 10.219 200.344 10.0468C201.144 9.85004 201.964 9.75094 202.788 9.75168C203.285 9.7402 203.782 9.78752 204.268 9.89263C204.577 9.96469 204.874 10.0819 205.149 10.2406V12.7116C204.806 12.6587 204.414 12.6147 203.977 12.5839C203.541 12.553 203.097 12.5354 202.656 12.5442C202.216 12.553 201.775 12.5751 201.335 12.6059C200.894 12.6367 200.542 12.6852 200.216 12.738V23.0581H196.948Z" fill="white"/>
<path d="M211.597 23.4458C210.896 23.4487 210.197 23.3794 209.51 23.2388C208.885 23.1155 208.288 22.8797 207.748 22.5429C207.232 22.2171 206.811 21.7614 206.528 21.2215C206.21 20.5793 206.058 19.8674 206.087 19.1513C206.061 18.3644 206.248 17.5851 206.629 16.8961C206.999 16.2808 207.552 15.7959 208.21 15.5087C209.021 15.1692 209.895 15.007 210.774 15.0329C211.352 15.0276 211.93 15.0837 212.496 15.2003C212.994 15.2993 213.478 15.4544 213.941 15.6628C214.316 15.8297 214.669 16.0412 214.993 16.2927L215.227 18.1206C214.802 17.8545 214.336 17.6596 213.848 17.5436C213.255 17.393 212.645 17.319 212.034 17.3234C211.329 17.2771 210.625 17.4297 210.003 17.7638C209.781 17.9122 209.602 18.1167 209.485 18.3565C209.367 18.5963 209.315 18.8629 209.333 19.1293C209.325 19.5126 209.451 19.8868 209.69 20.1864C209.937 20.4795 210.258 20.7014 210.62 20.8295C211 20.9661 211.401 21.0347 211.804 21.0321C212.491 21.0598 213.178 20.9961 213.848 20.8427C214.036 20.8011 214.202 20.6939 214.318 20.5405C214.433 20.3871 214.49 20.1974 214.478 20.0058V14.9008C214.508 14.5519 214.451 14.201 214.312 13.8796C214.173 13.5583 213.956 13.2765 213.681 13.0597C213.015 12.6347 212.232 12.4312 211.443 12.4783C210.674 12.4825 209.909 12.6089 209.179 12.8527C208.497 13.0533 207.859 13.3806 207.299 13.8173V10.8574C207.943 10.479 208.648 10.2139 209.382 10.0733C210.362 9.85269 211.364 9.7448 212.368 9.75178C212.843 9.75479 213.317 9.79308 213.787 9.86631C214.28 9.94439 214.764 10.0789 215.227 10.2671C215.685 10.4569 216.107 10.7252 216.473 11.06C216.861 11.4159 217.168 11.8497 217.376 12.3329C217.613 12.9172 217.727 13.5439 217.711 14.174L217.685 20.3405C217.702 20.688 217.643 21.0349 217.511 21.3569C217.379 21.6788 217.178 21.9679 216.923 22.2037C216.311 22.7123 215.573 23.0456 214.786 23.1683C213.735 23.3674 212.667 23.4603 211.597 23.4458V23.4458Z" fill="white"/>
<path d="M223.292 23.0583H220.05V6.55847H223.345L223.292 23.0583ZM222.6 15.7245L227.644 10.0866H231.634L224.296 17.4467L222.6 15.7245ZM224.939 14.434L232.123 23.0583H227.952L222.64 16.6495L224.939 14.434Z" fill="white"/>
<path d="M238.602 23.4459C237.425 23.4707 236.261 23.1964 235.22 22.6486C234.255 22.1221 233.47 21.32 232.964 20.345C232.404 19.2146 232.13 17.9636 232.167 16.7024C232.167 14.4354 232.712 12.7015 233.801 11.5005C234.891 10.2995 236.431 9.69898 238.422 9.69898C239.631 9.64012 240.828 9.9621 241.844 10.6196C242.747 11.2728 243.416 12.1994 243.751 13.2623C244.169 14.5862 244.36 15.9712 244.315 17.3586H234.277L234.048 15.1563H241.716L241.1 16.0813C241.065 14.7276 240.828 13.7542 240.391 13.161C240.139 12.8547 239.817 12.6144 239.451 12.4609C239.086 12.3074 238.689 12.2453 238.294 12.2801C237.76 12.2663 237.233 12.4038 236.774 12.6765C236.307 12.9949 235.958 13.4597 235.783 13.9979C235.52 14.8213 235.402 15.6843 235.435 16.5482C235.435 17.8843 235.748 18.912 236.374 19.6314C236.999 20.3509 237.965 20.7032 239.272 20.6886C239.787 20.6897 240.3 20.638 240.805 20.5344C241.268 20.4369 241.723 20.3029 242.166 20.1336C242.589 19.9691 242.954 19.8223 243.262 19.6931V22.6002C242.595 22.8712 241.906 23.082 241.201 23.23C240.345 23.3933 239.474 23.4657 238.602 23.4459V23.4459Z" fill="white"/>
</svg>
