<svg width="248" height="146" viewBox="0 0 248 146" fill="none" xmlns="http://www.w3.org/2000/svg">
<path d="M102.318 30.3127H106.012V46.856H102.318V30.3127Z" fill="black"/>
<path d="M119.505 38.3386H122.878V45.0542C121.111 46.3646 118.702 47.1835 116.293 47.1835C111.153 47.1835 107.458 43.5801 107.458 38.6662C107.458 33.7524 111.153 30.1489 116.293 30.1489C119.184 30.1489 121.433 31.1317 123.039 32.9334L120.629 35.2265C119.505 33.9162 118.059 33.4248 116.453 33.4248C113.241 33.4248 111.152 35.5541 111.152 38.6662C111.152 41.7783 113.241 43.9076 116.453 43.9076C117.417 43.9076 118.381 43.7439 119.344 43.2525V38.3386H119.505Z" fill="black"/>
<path d="M135.567 46.856L132.515 42.2697H132.355H129.142V46.856H125.287V30.3127H132.355C136.692 30.3127 139.422 32.6059 139.422 36.2093C139.422 38.6662 138.137 40.468 136.049 41.4507L139.744 46.6922H135.567V46.856ZM132.034 33.4248H128.982V39.1576H132.034C134.282 39.1576 135.407 38.0111 135.407 36.2093C135.407 34.5714 134.282 33.4248 132.034 33.4248Z" fill="black"/>
<path d="M153.557 43.7439V46.856H141.029V30.3127H153.236V33.4248H144.723V37.0283H152.272V39.9766H144.723V43.7439H153.557Z" fill="black"/>
<path d="M153.557 44.7267L155.646 42.1059C156.449 43.2525 157.412 43.9077 158.697 43.9077C160.143 43.9077 160.946 42.9249 160.946 41.1232V33.261H155.324V30.1489H164.641V40.7956C164.641 44.8904 162.552 46.856 158.858 46.856C156.609 47.0198 154.682 46.2008 153.557 44.7267Z" fill="black"/>
<path d="M177.169 43.2525H169.62L168.174 46.856H164.319L171.547 30.3127H175.242L182.47 46.856H178.615L177.169 43.2525ZM175.884 40.3042L173.314 33.9162L170.744 40.3042H175.884Z" fill="black"/>
<path d="M114.847 65.3648V68.4769H102.318V51.9336H114.526V55.0457H106.013V58.6492H113.562V61.5975H106.013V65.3648H114.847V65.3648Z" fill="black"/>
<path d="M132.355 51.9336L125.287 68.4769H121.593L114.686 51.9336H118.862L123.842 63.7268L128.821 51.9336H132.355V51.9336Z" fill="black"/>
<path d="M142.153 64.8734H134.604L133.158 68.4769H129.303L136.531 51.9336H140.226L147.454 68.4769H143.599L142.153 64.8734ZM141.029 61.9251L138.459 55.5371L135.889 61.9251H141.029Z" fill="black"/>
<path d="M162.874 51.9336V68.4769H159.822L151.791 58.4854V68.4769H148.096V51.9336H151.148L159.179 61.9251V51.9336H162.874Z" fill="black"/>
<path d="M176.366 59.9597H179.739V66.6753C177.972 67.9857 175.563 68.8046 173.154 68.8046C168.014 68.8046 164.319 65.2011 164.319 60.2873C164.319 55.3734 168.014 51.7699 173.154 51.7699C176.045 51.7699 178.294 52.7527 179.9 54.5544L177.491 56.8476C176.366 55.5372 174.921 55.0458 173.314 55.0458C170.102 55.0458 168.014 57.1751 168.014 60.2873C168.014 63.3994 170.102 65.5287 173.314 65.5287C174.278 65.5287 175.242 65.3649 176.206 64.8735V59.9597H176.366Z" fill="black"/>
<path d="M194.677 65.3649V68.477H182.149V51.9337H194.356V55.0458H185.843V58.6493H193.392V61.5976H185.843V65.3649H194.677V65.3649ZM188.895 50.6233H186.004L189.056 47.1836H192.911L188.895 50.6233Z" fill="black"/>
<path d="M196.444 51.9336H200.139V65.3648H208.17V68.4769H196.284V51.9336H196.444Z" fill="black"/>
<path d="M209.134 51.9336H212.828V68.4769H209.134V51.9336Z" fill="black"/>
<path d="M214.434 60.1235C214.434 55.2097 218.129 51.6062 223.269 51.6062C225.999 51.6062 228.409 52.589 229.854 54.5545L227.445 56.8476C226.32 55.5373 225.035 54.8821 223.429 54.8821C220.377 54.8821 218.289 57.0114 218.289 60.1235C218.289 63.2356 220.377 65.365 223.429 65.365C225.035 65.365 226.481 64.7098 227.445 63.3994L229.854 65.6926C228.409 67.6581 225.999 68.6409 223.108 68.6409C218.129 68.6409 214.434 65.0374 214.434 60.1235Z" fill="black"/>
<path d="M241.901 64.8734H234.512L233.067 68.4769H229.212L236.44 51.9336H240.134L247.362 68.4769H243.507L241.901 64.8734ZM240.777 61.9251L238.207 55.5371L235.637 61.9251H240.777Z" fill="black"/>
<path d="M112.919 86.4945H105.37L103.924 90.098H100.069L107.297 73.5547H110.992L118.22 90.098H114.365L112.919 86.4945ZM111.795 83.5462L109.225 77.1582L106.655 83.5462H111.795V83.5462Z" fill="black"/>
<path d="M117.899 88.2963L119.184 85.348C120.469 86.3308 122.557 86.986 124.484 86.986C126.733 86.986 127.536 86.167 127.536 85.1843C127.536 82.0722 118.22 84.2015 118.22 78.1411C118.22 75.3566 120.469 73.0635 124.966 73.0635C127.054 73.0635 129.143 73.5549 130.588 74.5376L129.464 77.4859C128.018 76.667 126.412 76.1756 124.966 76.1756C122.718 76.1756 121.914 76.9945 121.914 77.9773C121.914 81.0894 131.231 78.9601 131.231 85.0205C131.231 87.805 128.982 90.0981 124.324 90.0981C121.914 90.2619 119.344 89.4429 117.899 88.2963Z" fill="black"/>
<path d="M131.552 88.2963L132.837 85.348C134.122 86.3308 136.21 86.986 138.137 86.986C140.386 86.986 141.189 86.167 141.189 85.1843C141.189 82.0722 131.873 84.2015 131.873 78.1411C131.873 75.3566 134.122 73.0635 138.619 73.0635C140.707 73.0635 142.795 73.5549 144.241 74.5376L143.117 77.4859C141.671 76.667 140.065 76.1756 138.619 76.1756C136.37 76.1756 135.567 76.9945 135.567 77.9773C135.567 81.0894 144.884 78.9601 144.884 85.0205C144.884 87.805 142.635 90.0981 137.977 90.0981C135.567 90.2619 132.997 89.4429 131.552 88.2963Z" fill="black"/>
<path d="M159.019 86.8221V89.9341H146.49V73.5547H158.697V76.6668H150.184V80.2703H157.734V83.2186H150.184V86.9858H159.019V86.8221Z" fill="black"/>
<path d="M175.563 89.9342V80.1065L170.744 88.2962H169.138L164.48 80.4341V90.098H160.946V73.5547H163.998L170.102 83.8738L176.045 73.5547H179.097V90.098H175.563V89.9342Z" fill="black"/>
<path d="M196.444 85.5117C196.444 88.2962 194.195 89.9341 190.019 89.9341H181.667V73.5547H189.537C193.553 73.5547 195.641 75.1926 195.641 77.8133C195.641 79.4513 194.838 80.7617 193.553 81.4168C195.32 81.9082 196.444 83.3824 196.444 85.5117ZM185.361 76.3392V80.2703H189.055C190.822 80.2703 191.947 79.6151 191.947 78.3047C191.947 76.9944 190.983 76.3392 189.055 76.3392H185.361V76.3392ZM192.75 85.0203C192.75 83.7099 191.786 83.0548 189.698 83.0548H185.361V87.1496H189.698C191.625 87.1496 192.75 86.4945 192.75 85.0203Z" fill="black"/>
<path d="M198.211 73.5547H201.906V86.9859H209.937V90.098H198.051V73.5547H198.211Z" fill="black"/>
<path d="M223.269 86.8221V89.9341H210.74V73.5547H222.947V76.6668H214.434V80.2703H221.984V83.2186H214.434V86.9858H223.269V86.8221Z" fill="black"/>
<path d="M225.196 73.5547H228.891V90.098H225.196V73.5547Z" fill="black"/>
<path d="M242.062 86.4945H234.512L233.067 90.098H229.212L236.44 73.5547H240.134L247.362 90.098H243.507L242.062 86.4945ZM240.937 83.5462L238.367 77.1582L235.797 83.5462H240.937Z" fill="black"/>
<path d="M102.318 95.0117H109.707C115.008 95.0117 118.541 98.2876 118.541 103.202C118.541 108.115 114.847 111.391 109.707 111.391H102.318V95.0117V95.0117ZM109.386 108.443C112.598 108.443 114.686 106.477 114.686 103.365C114.686 100.253 112.598 98.2876 109.386 98.2876H106.012V108.443H109.386Z" fill="black"/>
<path d="M132.676 108.443V111.555H120.147V95.0117H132.355V98.1238H123.842V101.727H131.391V104.676H123.842V108.443H132.676Z" fill="black"/>
<path d="M139.904 95.0117H147.293C152.594 95.0117 156.128 98.2876 156.128 103.202C156.128 108.115 152.433 111.391 147.293 111.391H139.904V95.0117ZM146.972 108.443C150.184 108.443 152.273 106.477 152.273 103.365C152.273 100.253 150.184 98.2876 146.972 98.2876H143.599V108.443H146.972Z" fill="black"/>
<path d="M170.262 108.443V111.555H157.734V95.0117H169.941V98.1238H161.428V101.727H168.977V104.676H161.428V108.443H170.262Z" fill="black"/>
<path d="M171.708 104.348V95.1755H175.402V104.184C175.402 107.296 176.688 108.607 178.936 108.607C181.185 108.607 182.47 107.296 182.47 104.184V95.1755H186.164V104.348C186.164 109.262 183.434 111.883 178.776 111.883C174.439 111.719 171.708 109.098 171.708 104.348Z" fill="black"/>
<path d="M187.61 109.917L188.895 106.969C190.18 107.952 192.268 108.607 194.195 108.607C196.444 108.607 197.247 107.788 197.247 106.805C197.247 103.693 187.931 105.822 187.931 99.7617C187.931 96.9772 190.18 94.6841 194.677 94.6841C196.765 94.6841 198.854 95.1755 200.299 96.1582L199.175 99.1066C197.729 98.2876 196.123 97.7962 194.677 97.7962C192.429 97.7962 191.625 98.6152 191.625 99.5979C191.625 102.71 200.942 100.581 200.942 106.641C200.942 109.426 198.693 111.719 194.035 111.719C191.625 111.719 189.055 111.064 187.61 109.917Z" fill="black"/>
<path d="M102.8 116.633H109.546C114.686 116.633 118.22 119.909 118.22 124.823C118.22 129.736 114.686 133.012 109.546 133.012H102.8V116.633ZM109.386 131.047C113.401 131.047 115.971 128.59 115.971 124.823C115.971 121.055 113.401 118.598 109.386 118.598H105.049V131.047H109.386Z" fill="black"/>
<path d="M132.194 131.047V133.012H120.469V116.633H131.873V118.762H122.718V123.84H130.749V125.805H122.718V131.047H132.194Z" fill="black"/>
<path d="M153.879 116.633L146.811 133.176H144.562L137.495 116.633H140.065L145.847 130.228L151.63 116.633H153.879Z" fill="black"/>
<path d="M155.003 116.633H157.252V133.176H155.003V116.633Z" fill="black"/>
<path d="M171.066 128.917H162.552L160.786 133.012H158.376L165.765 116.469H168.014L175.402 133.012H172.993L171.066 128.917ZM170.262 127.116L166.729 119.09L163.195 127.116H170.262Z" fill="black"/>
<path d="M191.304 133.012V121.055L185.522 131.047H184.397L178.615 121.055V133.012H176.366V116.633H178.294L185.04 128.262L191.626 116.633H193.553V133.176H191.304V133.012Z" fill="black"/>
<path d="M207.367 128.917H198.854L197.087 133.012H194.677L202.066 116.469H204.315L211.704 133.012H209.294L207.367 128.917ZM200.46 115.159H199.175C199.175 113.357 200.139 112.21 201.424 112.21C202.869 112.21 203.672 113.848 204.475 113.848C205.118 113.848 205.6 113.357 205.6 112.374H206.885C206.885 114.012 205.921 115.159 204.636 115.159C203.19 115.159 202.387 113.521 201.584 113.521C200.942 113.684 200.46 114.176 200.46 115.159ZM206.564 127.116L203.03 119.09L199.496 127.116H206.564Z" fill="black"/>
<path d="M210.74 124.823C210.74 120.072 214.434 116.469 219.414 116.469C224.393 116.469 227.927 120.072 227.927 124.823C227.927 129.573 224.232 133.176 219.414 133.176C214.274 133.34 210.74 129.736 210.74 124.823ZM225.517 124.823C225.517 121.219 222.787 118.435 219.253 118.435C215.559 118.435 212.989 121.055 212.989 124.823C212.989 128.426 215.719 131.21 219.253 131.21C222.787 131.21 225.517 128.426 225.517 124.823Z" fill="black"/>
<path d="M44.975 121.383L49.6331 112.865H40.1562L44.975 121.383Z" fill="black"/>
<path d="M21.363 107.952H31.4824L26.3424 98.9429L21.363 107.952Z" fill="black"/>
<path d="M64.4106 44.8904C57.3431 37.5196 51.7212 28.6747 48.0268 18.847C47.0631 16.0625 46.0993 11.64 46.0993 8.52789C46.0993 6.07097 46.4206 3.77783 46.9025 1.6485C47.0631 0.993318 46.4206 0.338138 45.7781 0.829523C37.5862 5.74338 32.125 14.7521 32.125 25.0712C32.125 25.7264 32.4462 31.2954 32.4462 32.2782C32.4462 39.9765 30.5187 47.1835 27.3062 53.5715C27.3062 53.0802 27.3062 52.425 27.3062 51.9336C27.3062 44.2352 25.3787 37.0282 22.1662 30.6402C21.6844 29.8213 20.56 30.1488 20.7206 31.1316C20.8812 32.7696 21.0419 34.4075 21.0419 36.2093C21.0419 47.1835 17.1869 57.3388 10.9225 65.201C10.7619 65.3648 10.6012 65.6924 10.4406 65.6924C4.01562 73.3907 0 83.546 0 94.6841C0 112.538 10.1194 128.098 24.7362 135.633C26.985 136.779 28.5912 139.236 28.5912 142.021C28.5912 142.84 28.4306 143.659 28.27 144.314C28.1094 144.805 28.4306 145.461 29.0731 145.461C29.8762 145.461 30.6793 145.461 31.0006 145.461C46.7418 145.133 61.3587 139.564 73.0843 130.391C83.3643 122.038 89.9499 109.098 89.9499 94.6841C89.7893 76.5028 82.4006 63.7268 64.4106 44.8904ZM32.4462 74.7011H42.2443V62.2527C42.2443 61.4337 42.8868 60.7785 43.69 60.7785H45.7781C46.5812 60.7785 47.2237 61.4337 47.2237 62.2527V74.7011H57.0218C57.825 74.7011 58.4675 75.3563 58.4675 76.1753V78.3046C58.4675 79.1236 57.825 79.7788 57.0218 79.7788H47.2237V104.512C47.2237 105.331 46.5812 105.986 45.7781 105.986H43.69C42.8868 105.986 42.2443 105.331 42.2443 104.512V79.7788H32.4462C31.6431 79.7788 31.0006 79.1236 31.0006 78.3046V76.1753C31.0006 75.3563 31.6431 74.7011 32.4462 74.7011ZM74.8512 111.555C74.3693 112.374 73.5662 112.865 72.7631 112.865H55.4156L47.0631 127.607C46.5812 128.426 45.7781 128.917 44.975 128.917C44.1718 128.917 43.2081 128.426 42.8868 127.607L34.5343 112.865H17.1869C16.2231 112.865 15.42 112.374 15.0987 111.555C14.6169 110.736 14.6169 109.753 15.0987 108.934L23.7725 93.5375L15.0987 78.3046C14.6169 77.4856 14.6169 76.5029 15.0987 75.6839C15.5806 74.8649 16.3837 74.3735 17.1869 74.3735H26.985C27.4669 74.3735 27.7881 74.7011 27.7881 75.1925V78.6322C27.7881 79.1236 27.4669 79.4512 26.985 79.4512H21.5237L26.6637 88.4599L29.555 83.3822C29.7156 83.0546 29.8762 83.0547 30.1975 83.0547H34.2131C34.8556 83.0547 35.1768 83.7098 34.8556 84.2012L29.2337 93.8651L37.265 107.951H52.5243L60.3949 93.8651L55.0943 84.5288C54.7731 84.0374 55.0943 83.3822 55.7368 83.3822H59.7524C60.0737 83.3822 60.2343 83.546 60.3949 83.7098L63.2862 88.7875L68.2656 79.7788H62.8043C62.3224 79.7788 62.0012 79.4512 62.0012 78.9598V75.5201C62.0012 75.0287 62.3224 74.7011 62.8043 74.7011H72.6024C73.5662 74.7011 74.3693 75.1925 74.6906 76.0115C75.1724 76.8304 75.1724 77.8132 74.6906 78.6322L66.0168 94.0289L74.6906 109.262C75.3331 109.753 75.3331 110.736 74.8512 111.555Z" fill="black"/>
<path d="M58.3069 107.788H68.4262L63.2863 98.7791L58.3069 107.788Z" fill="black"/>
</svg>
